<svg xmlns="http://www.w3.org/2000/svg" width="53" height="60" viewBox="0 0 53 60" fill="none">
  <path d="M45.352 27.1123L40.6961 25.6319L15.0971 17.4724L16.3128 17.0937L19.6409 16.0436L26.5386 13.8832L40.7306 18.3503V22.7486L45.3865 24.2376V14.546L43.2396 13.866L34.2209 10.9913L26.5386 8.54688L18.8563 10.9913L11.3292 13.3926L9.82899 13.8747L8.00972 14.4427L7.69071 14.546V19.9943L12.3466 21.4833L40.7047 30.5207L45.2572 31.9668L47.9214 32.8275C47.5485 35.4443 46.6981 37.9705 45.4124 40.2811C44.9454 41.1324 44.4182 41.9494 43.8345 42.7256C42.0088 45.2013 39.6711 47.2561 36.98 48.7506L26.5386 54.5173L16.0972 48.7506C12.7907 46.93 10.0213 44.2742 8.06629 41.0492C6.11126 37.8242 5.03923 34.143 4.95752 30.3744L0.103272 28.8252V29.8321C0.102968 34.5522 1.36963 39.1862 3.7715 43.252C6.17338 47.3178 9.62271 50.6669 13.7607 52.9508L26.5386 60L39.3165 52.9508C43.0847 50.864 46.2868 47.892 48.6457 44.2921C49.1716 43.4916 49.6551 42.6642 50.0942 41.8132C51.2811 39.4604 52.1149 36.946 52.5687 34.3508C52.8341 32.8591 52.9697 31.3472 52.9739 29.8321V29.5826L48.137 28.0419L45.352 27.1123Z" fill="#A3B8D0"/>
  <path d="M47.7147 6.67049L39.9548 4.24334L34.1952 2.4272L27.47 0.31851L26.4698 0L25.461 0.31851L18.7444 2.4272L12.9849 4.24334L5.22499 6.67049L0 8.31447V25.8299L4.83698 27.3706L7.58743 28.2313L12.2434 29.7202L38.1096 37.9487C37.5278 38.7896 36.854 39.5633 36.1007 40.2554C35.2605 41.0342 34.3281 41.7076 33.3244 42.2608L26.4698 46.048L19.6153 42.2608C17.8297 41.2803 16.2769 39.927 15.0628 38.2932C13.8486 36.6593 13.0017 34.7833 12.5796 32.793L7.67366 31.2265C7.90328 34.3502 8.90974 37.3675 10.6019 40.005C12.2941 42.6426 14.6186 44.8172 17.3649 46.3319L26.4698 51.3585L35.5748 46.3319C37.6465 45.1911 39.4837 43.6696 40.9894 41.8477C41.6223 41.0904 42.1987 40.2878 42.7138 39.4463C43.5095 38.0936 44.135 36.6482 44.5762 35.1427L40.1531 33.7312L12.3037 24.8573L7.6478 23.3769L4.89734 22.5162V12.3167L6.37172 11.852L13.9505 9.46779L21.7104 7.04064L26.5302 5.52579L31.3499 7.04064L39.1098 9.46779L48.163 12.3167V25.1499L53 26.6906V8.34888L47.7147 6.67049Z" fill="#A3B8D0"/>
</svg>