<svg width="362" height="410" viewBox="0 0 362 410" fill="none" xmlns="http://www.w3.org/2000/svg">
<g opacity="0.2">
<path d="M309.656 185.412L277.824 175.276L102.77 119.485L111.065 116.797L133.849 109.618L180.763 94.8838L277.716 125.4V155.568L309.549 165.731V99.4008L294.925 94.7762L233.198 75.1218L180.709 58.3981L128.22 75.1218L76.7273 91.5229L66.4935 94.8031L54.0243 98.7286L51.8698 99.4008V136.747L83.7026 146.883L277.608 208.723L308.687 218.645L326.946 224.452C325.919 231.732 324.334 238.923 322.207 245.962C319.173 256.247 315.009 266.166 309.791 275.538C306.575 281.327 302.976 286.896 299.019 292.207C286.477 309.034 270.483 322.995 252.104 333.156L180.736 372.546L109.368 333.156C86.7797 320.681 67.8609 302.513 54.4976 280.463C41.1343 258.413 33.7933 233.252 33.2064 207.486L0 196.92V203.803C0.0165102 236.074 8.69661 267.751 25.1368 295.537C41.5771 323.322 65.1765 346.201 93.4786 361.791L180.817 409.999L268.155 361.791C293.93 347.565 315.825 327.257 331.929 302.64C335.553 297.186 338.862 291.531 341.839 285.701C346.669 276.213 350.644 266.316 353.716 256.125C355.85 249.122 357.541 241.992 358.779 234.777C360.572 224.577 361.473 214.24 361.472 203.884V202.19L328.401 191.65L309.656 185.412Z" fill="#A3B8D0"/>
<path d="M325.815 45.6536L272.976 29.0106L233.602 16.6426L187.684 2.17735L180.817 -0.000488281L173.922 2.17735L128.139 16.6426L88.6309 29.0106L35.7916 45.6536L0.0537109 56.8924V176.647L33.1255 187.187L51.9774 193.183L83.8102 203.319L260.399 259.62C256.412 265.358 251.806 270.642 246.664 275.376C240.952 280.691 234.623 285.303 227.812 289.115L180.925 314.981L133.929 289.196C121.704 282.44 111.086 273.125 102.802 261.89C94.5189 250.655 88.766 237.765 85.9378 224.103L52.3814 213.348C53.9424 234.707 60.816 255.34 72.3796 273.377C83.9433 291.415 99.8317 306.287 118.605 316.648L180.817 351.036L243.082 316.675C272.873 300.27 294.934 272.743 304.432 240.127L274.188 230.502L83.8102 169.818L51.9774 159.681L33.1255 153.686V83.9945L43.2247 80.8218L95.0136 64.5283L147.88 47.8853L180.817 37.5337L213.754 47.8853L266.593 64.5283L328.535 83.9945V171.727L361.607 182.267V56.8924L325.815 45.6536Z" fill="#A3B8D0"/>
</g>
</svg>
